<svg xmlns="http://www.w3.org/2000/svg" viewBox="0 0 796 284" width="796" height="284" role="img" aria-label="CRENEL">
  <rect width="796" height="284" fill="#F5F6F8"/>
  <rect x="38" y="92" width="720" height="16" fill="#00A34D"/>
  <rect x="38" y="48" width="48" height="44" fill="#00A34D"/>
  <rect x="122" y="48" width="48" height="44" fill="#00A34D"/>
  <rect x="206" y="48" width="48" height="44" fill="#00A34D"/>
  <rect x="290" y="48" width="48" height="44" fill="#00A34D"/>
  <rect x="374" y="48" width="48" height="44" fill="#00A34D"/>
  <rect x="458" y="48" width="48" height="44" fill="#00A34D"/>
  <rect x="542" y="48" width="48" height="44" fill="#00A34D"/>
  <rect x="626" y="48" width="48" height="44" fill="#00A34D"/>
  <rect x="710" y="48" width="48" height="44" fill="#00A34D"/>
  <rect x="100" y="92" width="8" height="8" fill="#F5F6F8"/>
  <rect x="184" y="92" width="8" height="8" fill="#F5F6F8"/>
  <rect x="268" y="92" width="8" height="8" fill="#F5F6F8"/>
  <rect x="352" y="92" width="8" height="8" fill="#F5F6F8"/>
  <rect x="436" y="92" width="8" height="8" fill="#F5F6F8"/>
  <rect x="520" y="92" width="8" height="8" fill="#F5F6F8"/>
  <rect x="604" y="92" width="8" height="8" fill="#F5F6F8"/>
  <rect x="688" y="92" width="8" height="8" fill="#F5F6F8"/>
  <rect x="48" y="126" width="100" height="20" fill="#0C0D12"/>
  <rect x="168" y="126" width="80" height="20" fill="#0C0D12"/>
  <rect x="288" y="126" width="100" height="20" fill="#0C0D12"/>
  <rect x="408" y="126" width="20" height="20" fill="#0C0D12"/>
  <rect x="488" y="126" width="20" height="20" fill="#0C0D12"/>
  <rect x="528" y="126" width="100" height="20" fill="#0C0D12"/>
  <rect x="648" y="126" width="20" height="20" fill="#0C0D12"/>
  <rect x="48" y="146" width="20" height="20" fill="#0C0D12"/>
  <rect x="168" y="146" width="20" height="20" fill="#0C0D12"/>
  <rect x="248" y="146" width="20" height="20" fill="#0C0D12"/>
  <rect x="288" y="146" width="20" height="20" fill="#0C0D12"/>
  <rect x="408" y="146" width="40" height="20" fill="#0C0D12"/>
  <rect x="488" y="146" width="20" height="20" fill="#0C0D12"/>
  <rect x="528" y="146" width="20" height="20" fill="#0C0D12"/>
  <rect x="648" y="146" width="20" height="20" fill="#0C0D12"/>
  <rect x="48" y="166" width="20" height="20" fill="#0C0D12"/>
  <rect x="168" y="166" width="80" height="20" fill="#0C0D12"/>
  <rect x="288" y="166" width="60" height="20" fill="#0C0D12"/>
  <rect x="408" y="166" width="20" height="20" fill="#0C0D12"/>
  <rect x="448" y="166" width="20" height="20" fill="#0C0D12"/>
  <rect x="488" y="166" width="20" height="20" fill="#0C0D12"/>
  <rect x="528" y="166" width="60" height="20" fill="#0C0D12"/>
  <rect x="648" y="166" width="20" height="20" fill="#0C0D12"/>
  <rect x="48" y="186" width="20" height="20" fill="#0C0D12"/>
  <rect x="168" y="186" width="20" height="20" fill="#0C0D12"/>
  <rect x="228" y="186" width="20" height="20" fill="#0C0D12"/>
  <rect x="288" y="186" width="20" height="20" fill="#0C0D12"/>
  <rect x="408" y="186" width="20" height="20" fill="#0C0D12"/>
  <rect x="468" y="186" width="40" height="20" fill="#0C0D12"/>
  <rect x="528" y="186" width="20" height="20" fill="#0C0D12"/>
  <rect x="648" y="186" width="20" height="20" fill="#0C0D12"/>
  <rect x="48" y="206" width="100" height="20" fill="#0C0D12"/>
  <rect x="168" y="206" width="20" height="20" fill="#0C0D12"/>
  <rect x="248" y="206" width="20" height="20" fill="#0C0D12"/>
  <rect x="288" y="206" width="100" height="20" fill="#0C0D12"/>
  <rect x="408" y="206" width="20" height="20" fill="#0C0D12"/>
  <rect x="488" y="206" width="20" height="20" fill="#0C0D12"/>
  <rect x="528" y="206" width="100" height="20" fill="#0C0D12"/>
  <rect x="648" y="206" width="100" height="20" fill="#0C0D12"/>
  <text x="50" y="260" font-family="'SF Mono','Geist Mono','JetBrains Mono',ui-monospace,monospace" font-size="15" letter-spacing="3" fill="#5B616B">Every edge in atomic agreement. Verified.</text>
</svg>
